<svg width="54" height="54" viewBox="0 0 54 54" fill="none" xmlns="http://www.w3.org/2000/svg">
<path d="M32.2875 46.7437L20.25 42.525L9.7875 46.575C9.4125 46.725 9.0465 46.7723 8.6895 46.7168C8.3325 46.6613 8.00475 46.539 7.70625 46.35C7.40775 46.161 7.17375 45.9083 7.00425 45.5918C6.83475 45.2752 6.75 44.9092 6.75 44.4937V12.9375C6.75 12.45 6.891 12.0188 7.173 11.6438C7.455 11.2688 7.839 10.9875 8.325 10.8L18.7875 7.25625C19.0125 7.18125 19.2473 7.125 19.4918 7.0875C19.7362 7.05 19.989 7.03125 20.25 7.03125C20.511 7.03125 20.7645 7.05 21.0105 7.0875C21.2565 7.125 21.4905 7.18125 21.7125 7.25625L33.75 11.475L44.2125 7.425C44.5875 7.275 44.9535 7.2285 45.3105 7.2855C45.6675 7.3425 45.9953 7.464 46.2938 7.65C46.5923 7.836 46.827 8.0895 46.998 8.4105C47.169 8.7315 47.253 9.09675 47.25 9.50625V41.0625C47.25 41.55 47.1097 41.9813 46.8293 42.3563C46.5487 42.7313 46.164 43.0125 45.675 43.2L35.2125 46.7437C34.9875 46.8187 34.7535 46.875 34.5105 46.9125C34.2675 46.95 34.014 46.9688 33.75 46.9688C33.486 46.9688 33.2332 46.95 32.9918 46.9125C32.7502 46.875 32.5155 46.8187 32.2875 46.7437ZM31.5 41.7375V15.4125L22.5 12.2625V38.5875L31.5 41.7375Z" fill="black"/>
</svg>
